%
T1C.007F0S0
X197076Y147544
X197614Y147544
X198107Y147875
X198897Y14792
X197799Y147923
X198404Y147923
X197487Y147924
X197371Y148101
X198222Y148142
X197595Y148145
X198754Y148146
X197876Y148147
X197716Y14841
X197371Y148596
X198163Y148658
X197367Y149097
X19908Y149404
X197373Y149604
X197902Y149654
X19908Y149904
X197674Y149908
X197376Y150106
X199251Y15019
X19866Y15022
X199012Y150255
X197605Y150332
X197376Y150601
X19866Y15071
X197376Y151103
X198522Y151207
X198406Y151373
X19871Y15172
X19841Y15187
X197996Y151874
X198137Y152022
X19869Y152023
X19841Y152181
X19869Y152338
X19841Y152496
X198775Y152684
X198555Y152686
X198305Y152692
X198877Y15289
X199091Y15304
X197347Y153187
X1988Y15319
X198994Y15334
X197315Y1535
X198224Y154034
X197953Y154038
X197401Y154422
X19925Y154449
X19907Y154449
X198166Y154468
X198368Y154469
X197801Y154474
X198676Y154481
X198855Y154735
X198397Y154739
X198046Y154756
X197702Y154766
X197364Y154774
X199284Y154782
X197568Y155009
X198461Y155009
X198981Y155019
X198039Y155023
X197078Y155023
X199317Y155024
X201089Y155043
X201473Y155043
X199832Y155024
X200254Y155019
X200681Y155019
X199682Y154787
X200133Y15473
X200499Y154725
X201477Y15462
X201063Y154614
X201736Y154608
X200052Y154476
X200339Y154472
X199565Y154459
X200611Y154445
X201494Y154409
X199807Y154386
X201772Y154337
X200079Y154294
X200344Y154213
X200619Y154206
X19978Y154166
X201076Y15414
X201508Y15414
X201265Y154118
X201723Y154035
X200096Y154034
X200421Y153995
X199843Y153984
X201051Y153897
X201559Y153862
X200096Y153841
X200544Y153824
X200313Y153819
X201273Y153789
X19981Y153766
X201704Y153677
X201064Y153648
X201462Y153617
X200311Y153599
X200536Y153535
X201267Y153507
X201638Y153489
X201453Y153384
X200607Y15338
X201599Y15326
X201378Y153132
X201055Y153078
X200127Y15223
X200727Y15223
X200427Y15223
X199827Y15223
X199527Y15223
X200127Y15193
X200427Y15193
X200727Y15193
X199527Y15193
X199827Y15193
X199527Y15163
X200127Y15163
X200727Y15163
X200427Y15163
X199827Y15163
X201727Y151516
X201552Y151384
X200727Y15133
X199527Y15133
X200127Y15133
X200427Y15133
X199827Y15133
X201552Y151075
X200427Y15103
X199827Y15103
X200127Y15103
X199527Y15103
X200727Y15103
X201767Y151005
X201591Y150686
X201148Y150201
X201375Y150187
X200836Y15013
X200521Y150102
X199576Y149959
X200679Y149881
X200849Y149676
X201103Y149666
X200206Y149601
X200364Y149457
X200049Y149447
X199569Y149334
X199891Y149284
X199384Y149126
X200638Y149084
X200364Y149059
X199836Y148947
X199398Y148904
X200049Y14888
X199902Y148704
X199447Y148689
X201103Y148668
X200894Y147916
X20139Y147915
X199385Y147914
X200394Y147913
X199903Y147913
X203069Y147577
X203456Y147586
X203768Y147589
X20337Y147847
X202992Y147847
X201889Y14789
X202367Y147941
X202941Y148179
X203255Y148238
X203473Y14824
X202792Y148346
X203058Y148352
X203154Y148683
X202351Y148685
X202617Y148689
X203471Y148689
X202075Y148699
X202886Y148701
X203318Y148825
X202489Y148856
X203022Y148864
X202748Y148864
X202238Y14887
X202741Y149171
X202969Y149181
X202443Y149183
X202053Y149193
X203223Y149199
X203426Y149281
X202613Y149334
X202252Y149346
X203077Y149348
X203157Y149669
X203429Y149671
X202821Y149675
X202127Y149677
X202517Y149677
X20347Y150028
X202715Y150517
X202367Y150547
X202342Y150763
X202139Y150836
X202531Y150909
X201962Y150935
X203168Y151068
X201915Y151183
X203174Y151285
X201915Y15143
X203172Y1516
X203172Y151889
X203217Y152205
X202928Y152291
X202124Y152325
X202402Y152331
X203456Y152492
X202897Y152748
X203193Y152771
X203443Y152867
X203129Y152989
X202928Y152993
X202581Y153027
X203447Y153349
X201871Y153472
X201987Y153657
X203447Y153776
X201875Y153827
X202125Y153837
X202444Y153929
X201973Y154041
X202266Y154052
X202586Y154098
X202826Y154187
X203215Y154208
X203459Y154219
X202238Y154262
X201986Y154279
X202427Y154293
X203022Y154327
X20265Y154341
X203459Y154467
X202152Y154475
X203222Y154477
X202427Y154482
X202838Y154496
X201925Y154506
X202105Y154654
X203072Y154713
X203429Y154724
X202713Y154734
X202415Y154736
X202205Y154942
X203748Y154969
X202931Y154991
X203445Y154997
X202695Y155011
X20316Y155016
T2C.008F0S0
X19856Y151551
X201561Y151709
X201723Y152309
T3C.01F095S3
X20135Y150525
X201264Y152776
X2005Y153105
X198697Y153537
X198697Y153811
T4C.02165F197S55
X198148Y147429
X198648Y147429
X199148Y147429
X19685Y148019
X19685Y148519
X19685Y149019
X19685Y149519
X19685Y150019
X19685Y150519
X19685Y151019
X19685Y151519
X19685Y152019
X19685Y152519
X19685Y153019
X19685Y153519
X19685Y154519
X199648Y147429
X200648Y147429
X201148Y147429
X200148Y147429
X201648Y147429
X202148Y147429
X202648Y147429
X203938Y148019
X203937Y148519
X203937Y149019
X203937Y149519
X203937Y150019
X203937Y150519
X203937Y151019
X203937Y152019
X203937Y152519
X203937Y153019
X203937Y153519
X203937Y154019
X203937Y154519
T5C.02756F197S55
X203937Y151519
X19685Y154019
M30
